<svg xmlns="http://www.w3.org/2000/svg" style="display:none"><defs>
  <symbol id="ic-search" viewBox="0 0 24 24"><circle cx="10.5" cy="10.5" r="6"></circle><path d="M14.8 14.8 L20 20"></path></symbol>
  <symbol id="ic-gear" viewBox="0 0 24 24"><circle cx="12" cy="12" r="3.2"></circle><path d="M12 3.2 V6 M12 18 V20.8 M3.2 12 H6 M18 12 H20.8 M5.6 5.6 L7.6 7.6 M16.4 16.4 L18.4 18.4 M18.4 5.6 L16.4 7.6 M7.6 16.4 L5.6 18.4"></path></symbol>
  <symbol id="ic-chart" viewBox="0 0 24 24"><path d="M4 4 V20 H20"></path><path d="M7 15 L11 10 L14 13 L19 6"></path></symbol>
  <symbol id="ic-spark" viewBox="0 0 24 24"><path d="M12 3 L13.7 9.1 L20 12 L13.7 14.9 L12 21 L10.3 14.9 L4 12 L10.3 9.1 Z"></path></symbol>
  <symbol id="ic-target" viewBox="0 0 24 24"><circle cx="12" cy="12" r="8.2"></circle><circle cx="12" cy="12" r="3.6"></circle></symbol>
  <symbol id="ic-layers" viewBox="0 0 24 24"><path d="M12 3.5 L20.5 8 L12 12.5 L3.5 8 Z"></path><path d="M3.5 12 L12 16.5 L20.5 12"></path><path d="M3.5 16 L12 20.5 L20.5 16"></path></symbol>
  <symbol id="ic-flow" viewBox="0 0 24 24"><circle cx="5" cy="6" r="2"></circle><circle cx="5" cy="18" r="2"></circle><circle cx="19" cy="12" r="2"></circle><path d="M7 6 H12 a5 5 0 0 1 5 5 M7 18 H12 a5 5 0 0 0 5 -5"></path></symbol>
  <symbol id="ic-doc" viewBox="0 0 24 24"><path d="M6.5 3 H14 L18.5 7.5 V21 H6.5 Z"></path><path d="M14 3 V7.5 H18.5"></path><path d="M9.5 13 H15 M9.5 16.5 H15"></path></symbol>
  <symbol id="ic-people" viewBox="0 0 24 24"><circle cx="8.5" cy="8" r="3"></circle><circle cx="16.5" cy="9.2" r="2.4"></circle><path d="M3.5 20 c0 -3.4 2.6 -5.6 5 -5.6 s5 2.2 5 5.6"></path><path d="M14.5 20 c0 -2.6 0.9 -4.3 2.8 -5"></path></symbol>
  <symbol id="ic-image" viewBox="0 0 24 24"><rect x="3" y="5" width="18" height="14" rx="1.5"></rect><circle cx="8.5" cy="10" r="1.8"></circle><path d="M3 17 L9 12 L13 15 L17 11 L21 15"></path></symbol>
  <symbol id="ic-calendar" viewBox="0 0 24 24"><rect x="3.5" y="5" width="17" height="15.5" rx="1.5"></rect><path d="M3.5 9.5 H20.5 M8 3 V6.5 M16 3 V6.5"></path></symbol>
  <symbol id="ic-check" viewBox="0 0 24 24"><path d="M4.5 12.5 L10 18 L19.5 6.5"></path></symbol>
  <symbol id="ic-book" viewBox="0 0 24 24"><path d="M12 5.5 C10 3.9 7 3.6 4 4.2 V19 c3 -0.6 6 -0.3 8 1.3 c2 -1.6 5 -1.9 8 -1.3 V4.2 c-3 -0.6 -6 -0.3 -8 1.3 Z"></path><path d="M12 5.5 V20.3"></path></symbol>
  <symbol id="ic-code" viewBox="0 0 24 24"><path d="M9 7.5 L4.5 12 L9 16.5 M15 7.5 L19.5 12 L15 16.5"></path></symbol>
  <symbol id="ic-loop" viewBox="0 0 24 24"><path d="M5 12 a7 7 0 0 1 12 -4.6 M17 3.4 V7.4 H13"></path><path d="M19 12 a7 7 0 0 1 -12 4.6 M7 20.6 V16.6 H11"></path></symbol>
  <symbol id="ic-flag" viewBox="0 0 24 24"><path d="M6 21 V4"></path><path d="M6 5 H17.5 L15 8.5 L17.5 12 H6"></path></symbol>
  <symbol id="ic-branch" viewBox="0 0 24 24"><circle cx="7" cy="6" r="2.4"></circle><circle cx="7" cy="18" r="2.4"></circle><circle cx="17" cy="9" r="2.4"></circle><path d="M7 8.4 V15.6"></path><path d="M17 11.4 a6 6 0 0 1 -7.6 4.6"></path></symbol>
  <symbol id="ic-chat" viewBox="0 0 24 24"><path d="M4 5.5 H20 V16.5 H10 L6 20 V16.5 H4 Z"></path><path d="M8.5 10 H15.5"></path></symbol>
</defs></svg>
